<svg width="24" height="24" viewBox="0 0 24 24" fill="none" xmlns="http://www.w3.org/2000/svg">
<path fill-rule="evenodd" clip-rule="evenodd" d="M17.9858 5.42379C14.0077 4.97918 9.99236 4.97918 6.0142 5.42379C5.74503 5.45388 5.6154 5.76953 5.78575 5.9801L9.30277 10.3276C10.5626 11.885 11.25 13.8276 11.25 15.8308V18.72L12.75 19.82V15.8308C12.75 13.8276 13.4374 11.885 14.6973 10.3276L18.2143 5.9801C18.3846 5.76953 18.255 5.45388 17.9858 5.42379ZM5.84759 3.93308C9.93648 3.47608 14.0635 3.47608 18.1524 3.93308C19.5994 4.09479 20.2962 5.79158 19.3805 6.92351L15.8634 11.271C14.8195 12.5615 14.25 14.171 14.25 15.8308V21.3001C14.25 21.5827 14.0911 21.8414 13.839 21.9691C13.5869 22.0969 13.2844 22.072 13.0565 21.9049L10.0565 19.7049C9.86384 19.5636 9.75002 19.339 9.75002 19.1001V15.8308C9.75002 14.171 9.1805 12.5615 8.13658 11.271L4.61956 6.92351C3.70387 5.79158 4.40066 4.09479 5.84759 3.93308Z" fill="black"/>
</svg>
