<svg width="21" height="18" viewBox="0 0 21 18" fill="none" xmlns="http://www.w3.org/2000/svg">
<path d="M10.6285 16.8255C10.6285 16.8255 1.63672 11.7901 1.63672 5.67572C1.6369 4.59503 2.01136 3.54776 2.69644 2.71196C3.38151 1.87616 4.33491 1.30343 5.39454 1.09113C6.45417 0.878834 7.55463 1.04008 8.50881 1.54745C9.46299 2.05483 10.212 2.87701 10.6285 3.87422L10.6285 3.87423C11.045 2.87702 11.794 2.05483 12.7481 1.54746C13.7023 1.04008 14.8028 0.878835 15.8624 1.09113C16.922 1.30343 17.8754 1.87616 18.5605 2.71196C19.2456 3.54776 19.62 4.59503 19.6202 5.67572C19.6202 11.7901 10.6285 16.8255 10.6285 16.8255Z" stroke="#F2FFF4" stroke-width="1.5" stroke-linecap="round" stroke-linejoin="round"/>
</svg>
