<svg width="20" height="20" viewBox="0 0 20 20" fill="none" xmlns="http://www.w3.org/2000/svg">
<path d="M10.7207 2.49688C10.3997 1.94342 9.60032 1.94342 9.27924 2.49688L7.0175 6.39464C6.85886 6.66804 6.58465 6.85462 6.2721 6.90182L2.0335 7.54201C1.3216 7.64954 1.07188 8.54836 1.62631 9.0077L4.78388 11.6237C5.07616 11.8659 5.2136 12.2479 5.1426 12.6207L4.31662 16.9584C4.18605 17.644 4.90587 18.1768 5.5235 17.8516L9.51466 15.75C9.81841 15.5901 10.1815 15.5901 10.4853 15.75L14.4765 17.8516C15.0941 18.1768 15.8139 17.644 15.6833 16.9584L14.8574 12.6207C14.7864 12.2479 14.9238 11.8659 15.2161 11.6237L18.3737 9.0077C18.9281 8.54836 18.6784 7.64954 17.9665 7.54201L13.7279 6.90182C13.4153 6.85462 13.1412 6.66804 12.9825 6.39464L10.7207 2.49688Z" fill="#FFD159"/>
</svg>
