<svg width="20" height="20" viewBox="0 0 20 20" fill="none" xmlns="http://www.w3.org/2000/svg">
<path d="M9.95044 18.2642C14.7178 18.2642 18.5825 14.3995 18.5825 9.63208C18.5825 4.86472 14.7178 1 9.95044 1C5.18308 1 1.31836 4.86472 1.31836 9.63208C1.31836 14.3995 5.18308 18.2642 9.95044 18.2642Z" stroke="#F2FFF4" stroke-width="1.5" stroke-miterlimit="10"/>
<path d="M9.95046 12.5096C11.9369 12.5096 13.5472 10.8993 13.5472 8.91286C13.5472 6.92646 11.9369 5.31616 9.95046 5.31616C7.96406 5.31616 6.35376 6.92646 6.35376 8.91286C6.35376 10.8993 7.96406 12.5096 9.95046 12.5096Z" stroke="#F2FFF4" stroke-width="1.5" stroke-miterlimit="10"/>
<path d="M4.1777 16.0499C4.71956 14.9846 5.54564 14.09 6.5645 13.4651C7.58336 12.8403 8.75527 12.5095 9.95048 12.5095C11.1457 12.5095 12.3176 12.8403 13.3365 13.4651C14.3553 14.09 15.1814 14.9846 15.7233 16.0499" stroke="#F2FFF4" stroke-width="1.5" stroke-linecap="round" stroke-linejoin="round"/>
</svg>
